<?xml version="1.0" encoding="utf-8"?>
<!-- Generator: Adobe Illustrator 23.0.2, SVG Export Plug-In . SVG Version: 6.00 Build 0)  -->
<svg version="1.1" id="Layer_1" xmlns="http://www.w3.org/2000/svg" xmlns:xlink="http://www.w3.org/1999/xlink" x="0px" y="0px"
	 viewBox="0 0 1287 448" style="enable-background:new 0 0 1287 448;" xml:space="preserve">
<style type="text/css">
	.st0{fill:url(#SVGID_1_);}
	.st1{fill:url(#SVGID_2_);}
	.st2{font-family:'MyriadPro-Bold';}
	.st3{font-size:256.9597px;}
</style>
<g>
	<linearGradient id="SVGID_1_" gradientUnits="userSpaceOnUse" x1="58.0461" y1="216.5284" x2="192.771" y2="216.5284">
		<stop  offset="0" style="stop-color:#C02026"/>
		<stop  offset="1" style="stop-color:#781214"/>
	</linearGradient>
	<path class="st0" d="M192.4,184.3c-1.7,19.9-9.2,34.4-14.4,44c-9,16.7-26.9,48.1-52.7,87.7v-60.2c0.1,0.2,0.2,0.4,0.3,0.6
		c17.9-37.9,35.8-75.8,53.6-113.7h-34v-25.9c5.9,1.7,19.5,6.6,31,19.6c14,15.7,16,33.4,16.5,39.2v0
		C192.8,177.5,192.7,180.5,192.4,184.3z M71.4,142.7h34v-26.3l-0.7,0c-6.5,2.3-21.2,8.5-32.8,23.6c-3.6,4.7-13.2,17.7-13.8,35.9
		c-0.1,1.5-0.1,3.9,0.3,7.9c1.9,20.5,10,37.3,13.2,43.7c8.7,17.5,26.8,49.5,53.4,89c0.1-0.2,0.3-0.4,0.4-0.6v-60.2
		C107.4,218.1,89.4,180.4,71.4,142.7z"/>
	<linearGradient id="SVGID_2_" gradientUnits="userSpaceOnUse" x1="75.8969" y1="314.1037" x2="174.92" y2="314.1037">
		<stop  offset="0" style="stop-color:#C02026"/>
		<stop  offset="1" style="stop-color:#781214"/>
	</linearGradient>
	<path class="st1" d="M174.9,313.4c0,9.5-22.2,17.3-49.5,17.3c-27.3,0-49.5-7.7-49.5-17.3c0-6.9,11.6-12.9,28.4-15.6l6.9,1.8
		c-18,1.7-30.9,6.8-30.9,12.7c0,21.7,89.8,17.2,89.8,0c0-5.9-12.7-10.8-30.3-12.6l5.2-2.1C162.5,300.2,174.9,306.3,174.9,313.4z"/>
</g>
<text transform="matrix(1 0 0 1 222.6494 308.2695)" class="st2 st3">VOLANT</text>
</svg>
