<?xml version="1.0" encoding="utf-8"?>
<!-- Generator: Adobe Illustrator 23.0.2, SVG Export Plug-In . SVG Version: 6.00 Build 0)  -->
<svg version="1.1" id="Layer_1" xmlns="http://www.w3.org/2000/svg" xmlns:xlink="http://www.w3.org/1999/xlink" x="0px" y="0px"
	 viewBox="0 0 1287 448" style="enable-background:new 0 0 1287 448;" xml:space="preserve">
<style type="text/css">
	.st0{fill:#18214D;stroke:#18214D;stroke-width:10;stroke-miterlimit:10;}
	.st1{fill:#FFFFFF;}
	.st2{font-family:'MyriadPro-Bold';}
	.st3{font-size:225.8408px;}
</style>
<path class="st0" d="M448.1,330.3"/>
<g>
	<path class="st1" d="M180.9,184.9c-1.4,16.9-7.8,29.2-12.2,37.4c-7.7,14.2-22.9,40.9-44.8,74.5v-51.2c0.1,0.2,0.2,0.4,0.3,0.5
		c15.2-32.2,30.4-64.4,45.6-96.6h-28.9v-22c5,1.5,16.5,5.6,26.3,16.7c11.9,13.4,13.6,28.3,14,33.3v0
		C181.2,179.2,181.2,181.8,180.9,184.9z M78,149.6h28.9v-22.3l-0.6,0c-5.5,1.9-18,7.2-27.9,20.1c-3,4-11.2,15-11.8,30.5
		c0,1.3-0.1,3.3,0.3,6.7c1.6,17.4,8.5,31.7,11.2,37.1c7.4,14.9,22.8,42.1,45.4,75.7c0.1-0.2,0.2-0.4,0.3-0.5v-51.2
		C108.6,213.7,93.3,181.7,78,149.6z"/>
	<path class="st1" d="M166,294.7c0,8.1-18.8,14.7-42.1,14.7c-23.2,0-42.1-6.6-42.1-14.7c0-5.9,9.9-10.9,24.1-13.3l5.8,1.5
		c-15.3,1.5-26.3,5.8-26.3,10.8c0,18.4,76.3,14.6,76.3,0c0-5-10.8-9.2-25.8-10.7l4.5-1.8C155.5,283.4,166,288.6,166,294.7z"/>
</g>
<text transform="matrix(1 0 0 1 216.3367 300.7289)" class="st1 st2 st3">VOLANT</text>
</svg>
