<?xml version="1.0" encoding="utf-8"?>
<!-- Generator: Adobe Illustrator 23.0.2, SVG Export Plug-In . SVG Version: 6.00 Build 0)  -->
<svg version="1.1" id="mockup_cover" xmlns="http://www.w3.org/2000/svg" xmlns:xlink="http://www.w3.org/1999/xlink" x="0px"
	 y="0px" viewBox="0 0 1920 449.61" style="enable-background:new 0 0 1920 449.61;" xml:space="preserve">
<style type="text/css">
	.st0{clip-path:url(#SVGID_2_);fill:#F9F2F2;}
	.st1{fill:#F9F2F2;}
	.st2{fill:#F7EBEB;}
	.st3{fill:#FEFFFF;}
	.st4{fill:#EFCBCB;}
	.st5{fill:#EFCECE;}
	.st6{fill:#CC5252;}
	.st7{fill:#EAC3C3;}
	.st8{fill:#EAE8F8;}
	.st9{fill:#F0EEFA;}
	.st10{fill:#F4C9C9;}
	.st11{fill:none;stroke:#BD4243;stroke-width:0.2905;stroke-miterlimit:10;}
	.st12{fill:#7C0404;}
	.st13{fill:#FFFFFF;}
	.st14{fill:#7F6B6B;}
	.st15{fill:#F9F9F9;}
</style>
<g>
	<defs>
		<rect id="SVGID_1_" x="-2.47" width="562.4" height="315.33"/>
	</defs>
	<clipPath id="SVGID_2_">
		<use xlink:href="#SVGID_1_"  style="overflow:visible;"/>
	</clipPath>
	<path id="Path_563_1_" class="st0" d="M-2.47,1.72v329.33h1027.08V90.84h-7.52v-9.79h-12.7v9.79h-6.7V79.69h-2.82v11.17h-14.28
		v25.4h-9.67v21.19H958.6V70.12l-3.28-5.38h-7.89V52.12l-5.79-3.63c-0.06-3.92-2.93-7.22-6.8-7.84v-18
		c-0.11-0.64-0.61-1.15-1.25-1.25c-0.83-0.14-1.61,0.43-1.75,1.25v18c-3.87,0.62-6.73,3.92-6.8,7.84l-5.79,3.63v12.62h-7.87
		l-2.8,5.34v67.32H893.4l-12.87-46.57h-9.49V77.32h-3.17v13.53h-9.5v-6.32H823.8v6.31h-11.26V58.55h-15.9v-6.43h-16.1v6.44h-8.56
		v-15h-2.11v15h-9.34v45.51h-10.41v17.86h-35.25v39.33h-20.49v-39.33l-7.64-2.83h-10.2V79.92l-4.57-4.77h-4.44v-3.94l-15.47-21.6
		l-14.5,21.6v3.94h-4.49l-4.52,4.77v39.18h-10v2.83h-1.5v-17.86h-2.81l-0.37-59.19l-43.3-26.34L570.2,0l-2.74,6.77v51.79h-12.91
		v32.29H543.3v-6.32h-12.76V61h-13v-4.46h-53.09V61h-13v14.47c-13.94,10.05-28.76,19.52-42.94,29.42v32.5h-12.3v-21.15h-9.71v-25.4
		h-11.76V46h-4.2v-3.74h-1.45v-15.9h-1.7v15.89h-8.92L352.6,46l-13.89,10.27v8.62l-8.3,7.73v18.24h-13.8v25.4h-9.7v21.15h-12.29
		V70.08h-3.28l-7.84-5.34V52.12l-5.79-3.63c-0.06-3.92-2.93-7.22-6.8-7.84v-18c-0.11-0.64-0.61-1.15-1.25-1.25
		c-0.83-0.14-1.61,0.43-1.75,1.25v18c-3.87,0.62-6.73,3.92-6.8,7.84l-5.79,3.63v12.62l-7.88,5.34h-2.81v67.32h-28V90.83h-9.51V77.32
		h-3.17v13.53h-9.52v-6.32h-34.56v6.31h-11.3V58.55h-15.9v-6.43h-16.14v6.44h-8.55v-15h-2.11v15h-9.3v45.51H86.13v17.86H57.2V70.08
		H43.09V58.56H24.75v11.52H14.41V58.56L-2.47,1.72z"/>
</g>
<path id="Path_563" class="st1" d="M1385.46,58.56v11.52h-10.34V58.56h-18.34v11.52h-14.11v51.85h-28.93v-17.86h-10.44V58.56h-9.3
	v-15h-2.11v15h-8.55v-6.44h-16.14v6.43h-15.9v32.29H1240v-6.31h-34.56v6.32h-9.52V77.32h-3.17v13.51h-9.51v46.57h-28V70.08h-2.81
	l-7.88-5.34V52.12l-5.79-3.63c-0.07-3.92-2.93-7.22-6.8-7.84v-18c-0.14-0.83-0.92-1.39-1.75-1.25c-0.64,0.11-1.15,0.61-1.25,1.25v18
	c-3.87,0.62-6.74,3.92-6.8,7.84l-5.79,3.63v12.62l-7.84,5.34h-3.28v67.33h-12.29v-21.15h-9.7v-25.4h-13.8V72.62l-8.3-7.73v-8.62
	L1047.27,46l-5.87-3.75h-8.92V26.36h-1.7v15.9h-1.45V46h-4.2v44.84h-11.76v25.4h-9.71v21.15h-12.3v-32.5
	c-14.18-9.9-29-19.37-42.94-29.42V61h-13v-4.46h-53.09V61h-13v23.53h-12.76v6.32h-11.25V58.56h-12.91V6.77L829.67,0l-0.37,18.54
	L786,44.88l-0.37,59.19h-2.81v17.86h-1.5v-2.83h-10V79.92l-4.52-4.77h-4.49v-3.94l-14.5-21.6l-15.47,21.6v3.94h-4.44l-4.57,4.77
	v39.18h-10.2l-7.64,2.83v39.33H685v-39.33h-35.25v-17.86h-10.41V58.56H630v-15h-2.11v15h-8.56v-6.44h-16.1v6.43h-15.9v32.29h-11.26
	v-6.31H541.5v6.32H532V77.32h-3.17v13.51h-9.49l-12.87,46.57h-15.18V70.08l-2.8-5.34h-7.87V52.12l-5.79-3.63
	c-0.07-3.92-2.93-7.22-6.8-7.84v-18c-0.14-0.83-0.92-1.39-1.75-1.25c-0.64,0.11-1.15,0.61-1.25,1.25v18
	c-3.87,0.62-6.74,3.92-6.8,7.84l-5.79,3.63v12.62h-7.89l-3.28,5.38v67.33h-12.32v-21.19h-9.67v-25.4H405V79.69h-2.82v11.15h-6.7
	v-9.79h-12.7v9.79h-7.52v240.21h1027.08V1.72L1385.46,58.56z"/>
<path id="Path_564" class="st1" d="M1531.18,250.34c0.09-0.65,0.14-1.3,0.15-1.95c0-8.41-7.14-15.22-15.95-15.22
	c-7.43-0.12-13.93,4.95-15.63,12.18c-0.43,0-0.86-0.07-1.3-0.07c-3.51-0.01-6.89,1.28-9.5,3.63c-1.16-2.93-3.65-5.14-6.7-5.94
	v-77.74H1436v79.9c-2.86,2.07-4.91,5.07-5.8,8.49l0.47-163.89l-47.25,0.55l-0.16,58.68h-22.7v1.56l-13.93,36.31v1.56h-6.52
	l-19.44-15.73V72.43h-4.7v-5.31h-7.51v-3h-14.75V52.39h-0.89V29.87h-0.39v22.52h-0.9v11.68h-12.58v3h-8.19v5.31h-5.8V186.9
	l-3.11-1.64v-38.92h-6.09v7.92h-4.29V129h-5.66v25.24h-8.19v18.18l-17.6-9.3v-46.76l-8.07-9.95v-0.66l-26.48-8V88.5l-11.63-5.74
	v11.47l-1.54-0.47v80.18l-11.74-0.82l0.07-8.05l0,0V164h-5.08v-26l-3.81-1.23l-1.81-5l-4.42-6.64v-6.93l0,0l-1.42-1.33l-3.79-3.54
	V113l-0.88-30.88l-0.6,13.88l0.12,17.59l-4.31,4.6l0,0l0.08,6.94l-3.92,6.64l-2.07,4.83l-3,1.41l0,0v26h-6.4v7h-30.65v3.86h-11.31
	l-1.19-74.08v-0.06c0.01-0.06,0.01-0.11,0-0.17l0,0l-15-24c-0.37-0.35-0.93-0.42-1.37-0.17l-35.66,27.13v0.06h-0.06
	c0,0.02,0,0.04,0,0.06l-0.06,0.11c-0.01,0.04-0.01,0.09,0,0.13c0,0.02,0,0.04,0,0.06v79.59h-17.12v-45.7h-46.3v69.05l-23.54,9.49
	l-1,25c-7.32,0.2-13.19,5.86-13.19,12.82c0,0.55,0.04,1.1,0.12,1.64c-11.2-2.34-16.28,7.57-16.9,14.75h18.85l-1.09,0.34l76.09-0.18
	c70.28,0.11,154.36,0.16,154.36-0.32l0,0l105.87-0.25c0.01,0.1,0.05,0.19,0.09,0.28h284.35
	C1543.71,261.95,1538.69,254.43,1531.18,250.34z"/>
<path id="Path_564_1_" class="st1" d="M1283.22,262.34h284.35c0.04-0.09,0.08-0.18,0.09-0.28l105.87,0.25l0,0
	c0,0.48,84.08,0.43,154.36,0.32l76.09,0.18l-1.09-0.34h18.85c-0.62-7.18-5.7-17.09-16.9-14.75c0.08-0.54,0.12-1.09,0.12-1.64
	c0-6.96-5.87-12.62-13.19-12.82l-1-25l-23.54-9.49v-69.05h-46.3v45.7h-17.12V95.83c0-0.02,0-0.04,0-0.06c0.01-0.04,0.01-0.09,0-0.13
	l-0.06-0.11c0-0.02,0-0.04,0-0.06h-0.06v-0.06l-35.66-27.13c-0.44-0.25-1-0.18-1.37,0.17l-15,24l0,0c-0.01,0.06-0.01,0.11,0,0.17
	v0.06l-1.19,74.08h-11.31v-3.86h-30.65v-7h-6.4v-26l0,0l-3-1.41l-2.07-4.83l-3.92-6.64l0.08-6.94l0,0l-4.31-4.6l0.12-17.59
	l-0.6-13.88l-0.88,30.88v0.33l-3.79,3.54l-1.42,1.33l0,0v6.93l-4.42,6.64l-1.81,5l-3.81,1.23v26h-5.08v1.07l0,0l0.07,8.05
	l-11.74,0.82V85.65l-1.54,0.47V74.65l-11.63,5.74v9.25l-26.48,8v0.66l-8.07,9.95v46.76l-17.6,9.3v-18.18h-8.19v-25.24h-5.66v25.26
	h-4.29v-7.92h-6.09v38.92l-3.11,1.64V64.27h-5.8v-5.31h-8.19v-3h-12.58V44.28h-0.9V21.76h-0.39v22.52h-0.89v11.73h-14.75v3h-7.51
	v5.31h-4.7v100.23l-19.44,15.73h-6.52v-1.56l-13.93-36.31v-1.56h-22.7l-0.16-58.68l-47.25-0.55l0.47,163.89
	c-0.89-3.42-2.94-6.42-5.8-8.49v-79.9h-46.25v77.74c-3.05,0.8-5.54,3.01-6.7,5.94c-2.61-2.35-5.99-3.64-9.5-3.63
	c-0.44,0-0.87,0.07-1.3,0.07c-1.7-7.23-8.2-12.3-15.63-12.18c-8.81,0-15.95,6.81-15.95,15.22c0.01,0.65,0.06,1.3,0.15,1.95
	C1289.14,246.32,1284.12,253.84,1283.22,262.34z"/>
<rect id="Rectangle_64" y="266.01" class="st2" width="1920" height="48.37"/>
<path id="Path_595" class="st1" d="M1920,435.87H0L0.43,311H1920V435.87z"/>
<rect id="Rectangle_65" y="429.01" class="st2" width="1920" height="20.6"/>
<g>
	<path id="Path_596" class="st3" d="M1724.84,328.13h-95.15l9-10.55h95.15L1724.84,328.13z"/>
	<path id="Path_597" class="st3" d="M1708.31,347.59h-95.16l9-10.55h95.15L1708.31,347.59z"/>
	<path id="Path_598" class="st3" d="M1691.77,367.07h-95.16l9-10.55h95.15L1691.77,367.07z"/>
	<path id="Path_599" class="st3" d="M1675.23,386.53h-95.15l9-10.55h95.15L1675.23,386.53z"/>
	<path id="Path_600" class="st3" d="M1658.7,406h-95.16l9-10.55h95.07L1658.7,406z"/>
	<path id="Path_601" class="st3" d="M1642.15,425.47H1547l9-10.55h95.15L1642.15,425.47z"/>
</g>
<g id="Group_72">
	<path id="Path_583" class="st4" d="M203.07,127.53c6.31-7.29,6.19-16.78,0.25-24c-5.74-6.93-8.19-13.68-19.43-14.39
		c-9.95-0.62-11.19-3.52-16-9.83c-3.28-4.23-7.78-9.29-14.07-9.38c-5.34-0.09-10.42,2.3-13.76,6.47c-4.2,5.67-2.08,10.58-3.58,16.63
		c-1.2,4.87-3.88,6.45-9.1,6c-7.69-0.66-16.91,0.17-21.36,6.15c-3.73,5-5.74,11.47-4.53,17.38c1.13,5.74,8.25,11.13,7.6,16.09
		c-0.7,5.44-5.6,9.65-4.76,15.35c0.82,5.43,6,7.44,11.73,8.55c8.71,1.68,3.56,7.75,2.84,13.17c-1.27,9.55,2,18.25,13.41,21.83
		c4.26,1.34,9.53,1.64,14.06,1.85c2.65,0.12,5.36-0.12,8,0.07c2.91,0.2,5.33,1.43,8.11,1.75c7.73,0.88,16.15-6.28,22.51-9.76
		c3.85-2.11,9.29-4.59,7.77-9.31c-1-2.95-4.64-5-4.39-8.55c0.43-6.33,9.91-9.78,12.46-15.27c1.23-2.64,2.06-5.27,0.35-7.58
		c-3.6-4.92-12.14-4.29-11.47-10.3C190.22,134.93,199.2,132,203.07,127.53z"/>
	<path id="Path_584" class="st5" d="M171.84,91.03c-5.44-3.1-7.42-10.33-12.86-13.28c-6.78-3.66-11.37-1.55-14.38,2.88
		s-4.47,11.33-4.92,16.92c-1.16,3-3.46,5.31-9.17,6.13c-8.19,1.17-18.42-1.48-21.26,9.48c-0.61,3.23-0.45,6.57,0.46,9.73
		c1.56,6,5.24,11.78,10.71,11.26c2.7-4.48,5.24-22.38,11.42-22.28c2.46,0,4.1,3.36,6.44,4.45c4.73,2.22,6.19-0.42,8.5-4.57
		c2-3.61,2.56-10.39,5.47-13.11c3.43-3.23,5.08-0.3,8,1.95c8,6.1,13.32,1.31,21.35-2C182.93,90.43,176.54,93.71,171.84,91.03z"/>
	<path id="Path_585" class="st5" d="M183.66,144.8c-4.16-2.88-6.69,2.06-6.91,6.64c-0.07,1.42,0.09,2.84,0.48,4.2
		c-2.32,2.82-3.74,6.27-4.1,9.9c-0.22,3.93,1.37,5.74-0.25,9.51c-1.11,2.62-3.5,4.4-4.65,6.87c-1.89,4.1-2.14,12.18,2.66,12.91
		c2.52,0.38,5.84-1.32,8.53-3.65c2.29-2,4.1-4.41,4.6-6.38c1.19-4.92-1.95-9.61-1.37-14.59c0.72-6.2,8.43-8.59,9-13.43
		C191.93,153.79,185.97,146.39,183.66,144.8z"/>
	<path id="Path_586" class="st6" d="M182.96,123.37l-0.61,0.57l-0.75,0.82c-1.06,1.16-2.37,2.77-3.67,4.38s-2.62,3.2-3.71,4.3
		c-0.22,0.24-0.43,0.43-0.63,0.62l0.17-0.92c0.2-0.89,0.27-1.82,0.4-2.71l0.18-1.34l0.12-1.32c0.07-0.87,0.16-1.73,0.21-2.57
		l0.11-2.46c0.08-1.6,0.06-3.11,0.08-4.51c0.03-1.27,0-2.54-0.11-3.8c-0.11-1.13-0.12-2.11-0.2-2.93l-0.3-2.54l0.16,2.55v2.93
		c0,1.14-0.06,2.4-0.08,3.79s-0.15,2.89-0.31,4.48l-0.25,2.46c-0.1,0.82-0.23,1.64-0.34,2.54l-0.19,1.3l-0.25,1.31
		c-0.18,0.88-0.3,1.76-0.53,2.66c-0.23,0.9-0.42,1.83-0.68,2.69l-0.43,1.32c-0.14,0.44-0.34,0.88-0.5,1.31
		c-0.72,1.75-1.54,3.46-2.46,5.12c-0.89,1.64-1.83,3.28-2.74,4.92s-1.78,3.13-2.55,4.63c-0.38,0.75-0.77,1.48-1.08,2.2l-0.48,1.06
		v-1.52l-0.12-4c0-1.31-0.22-2.61-0.33-3.9l-0.35-3.82c-0.13-1.25-0.33-2.46-0.48-3.7c-0.33-2.46-0.65-4.8-1-7.08l-1.09-6.55
		l-1-6.06l-0.87-5.47c-0.3-1.71-0.47-3.33-0.67-4.82l-0.53-4.1c-0.22-2.46-0.35-4.43-0.47-5.74l-0.16-2l0.09,2
		c0.07,1.33,0.13,3.28,0.27,5.74l0.39,4.1c0.15,1.49,0.27,3.11,0.51,4.83l0.68,5.49l0.82,6.08l0.86,6.61
		c0.32,2.29,0.55,4.65,0.82,7.07c0.11,1.21,0.27,2.46,0.36,3.69l0.22,3.78c0.06,1.28,0.19,2.56,0.2,3.86v11.95l-0.2,1.43
		c0,0.21-0.06,0.43-0.07,0.62s0.2,3.65,0.2,4.34v2.1l0.11,5.63c-0.34-0.32-0.69-0.66-1.09-1l-1.43-1.28c-1-0.9-2.19-1.91-3.42-3
		c-1.28-1.16-2.46-2.43-3.52-3.8c-0.26-0.36-0.56-0.71-0.82-1.09l-0.76-1.19c-0.5-0.82-1.06-1.64-1.54-2.46l-1.51-2.56
		c-0.51-0.87-1-1.77-1.44-2.66c-0.24-0.45-0.48-0.9-0.71-1.35l-0.65-1.38l-0.65-1.39c-0.1-0.23-0.23-0.48-0.31-0.69l-0.27-0.71
		l-0.54-1.43c-0.19-0.48-0.3-1-0.45-1.43l-0.43-1.43l-0.36-1.44l-1.36-5.65c-0.22-0.92-0.51-1.81-0.75-2.7s-0.6-1.72-0.89-2.55
		c-0.29-0.8-0.63-1.59-1-2.36c-0.17-0.38-0.34-0.75-0.53-1.11c-0.17-0.35-0.31-0.71-0.44-1.07c-0.55-1.43-1-2.75-1.39-3.92
		c-0.39-1.17-0.82-2.18-1.18-3c-0.28-0.66-0.64-1.27-1.08-1.83c-0.12-0.16-0.26-0.3-0.41-0.43l-0.16-0.14l0.15,0.14
		c0.15,0.13,0.28,0.27,0.39,0.43c0.41,0.57,0.75,1.18,1,1.84c0.35,0.82,0.71,1.84,1.09,3c0.38,1.16,0.76,2.51,1.27,3.95
		c0.12,0.36,0.27,0.73,0.42,1.1s0.34,0.75,0.49,1.12c0.31,0.76,0.69,1.53,1,2.36c0.31,0.83,0.56,1.64,0.82,2.54s0.47,1.77,0.66,2.69
		l1.19,5.68l0.32,1.46l0.39,1.47c0.14,0.48,0.25,1,0.42,1.47l0.5,1.44l0.25,0.72c0.1,0.26,0.2,0.48,0.3,0.72l0.49,1.14l-0.36-0.21
		c-0.34-0.19-0.68-0.4-1-0.63c-0.35-0.27-0.75-0.52-1.15-0.82l-1.25-1c-0.43-0.35-0.89-0.7-1.38-1.06s-1-0.69-1.52-1l-0.82-0.44
		c-0.14-0.08-0.29-0.15-0.44-0.21l-0.44-0.16l-0.43-0.16l-0.47-0.13c-0.31-0.08-0.61-0.18-0.92-0.23c-0.6-0.13-1.19-0.24-1.74-0.33
		l-1.55-0.27c-0.47-0.1-0.92-0.16-1.3-0.28c-0.34-0.08-0.67-0.17-1-0.28l-0.82-0.29l0.82,0.34c0.33,0.12,0.66,0.23,1,0.32
		c0.37,0.13,0.82,0.21,1.28,0.34l1.53,0.34c0.55,0.12,1.11,0.25,1.69,0.4c0.28,0.07,0.55,0.16,0.82,0.26l0.43,0.14l0.43,0.18
		l0.43,0.19c0.13,0.06,0.26,0.13,0.38,0.21l0.77,0.45c0.47,0.34,1,0.67,1.39,1s0.87,0.73,1.27,1.11l1.19,1.06
		c0.37,0.34,0.77,0.64,1.12,0.93s0.75,0.52,1.06,0.75c0.14,0.12,0.3,0.22,0.46,0.3l0.39,0.2l0.75,0.39l0,0l0.12,0.28
		c0.21,0.47,0.46,0.92,0.68,1.38c0.47,0.91,0.89,1.83,1.38,2.71l1.45,2.61c0.47,0.86,1,1.64,1.47,2.46l0.72,1.2
		c0.25,0.41,0.52,0.8,0.82,1.17c1.06,1.44,2.25,2.77,3.55,4c1.22,1.15,2.35,2.2,3.35,3.11l1.38,1.29c0.42,0.39,0.77,0.76,1.11,1.1
		c0.59,0.56,1,1.07,1.34,1.44l0.18,8.91c0.1,2.83,0,5.67,0,8.5v6.32l-0.1,2.1l-0.82,16.39l-0.82,15.35l-0.2,3.6l-0.16,3.51
		l-0.29,6.67l-0.26,6.14l-0.12,2.84v2.68c0,3.47-0.07,6.48-0.11,9l-0.09,7.82h6.17l-0.17-7.81c-0.06-2.46-0.12-5.51-0.2-9v-5.52
		c0-1.93,0-4,0.06-6.09s0-4.33,0.06-6.62v-3.49l0.07-3.61l0.32-15.36c0.07-5.34,0.16-10.84,0.24-16.45v-4.24l-0.1-4.24
		c-0.06-2.83-0.09-5.67-0.29-8.52c-0.31-5.69-0.67-22.52-0.68-22.83v-0.51c-0.02-0.18-0.02-0.35,0-0.53l0.11-1.25
		c0.07-0.46,0.17-1,0.26-1.5c0.11-0.57,0.25-1.14,0.42-1.7c0.16-0.64,0.36-1.26,0.59-1.88c0.23-0.66,0.49-1.34,0.77-2
		s0.61-1.43,0.94-2.16c0.68-1.48,1.46-3,2.28-4.65s1.68-3.28,2.46-5c0.85-1.77,1.59-3.59,2.22-5.45c0.15-0.46,0.33-0.9,0.44-1.37
		l0.37-1.38l0.06-0.24c0.13-0.08,0.25-0.17,0.37-0.27c0.19-0.17,0.46-0.39,0.69-0.63c0.26-0.26,0.51-0.53,0.74-0.82
		c1-1.2,2.23-2.87,3.4-4.54s2.33-3.34,3.28-4.54l0.68-0.82l0.56-0.6l0.55-0.49L182.96,123.37z"/>
	<path id="Path_587" class="st7" d="M126.95,163.51c3.79-5.5,5.33-14.89,1.52-20.83c-4-6.29-11.58-10.17-19.09-12.29
		c-3.37-1-6.3-1.46-8.31-4c-3-3.88-1.42-6.82-6.87-9.56c-5.2-2.63-11.78-3.39-16.22,0.32s-4,9.6-8.28,13.27
		c-3.57,3-9.09,3.45-13,6.11c-6.83,4.68-9.54,15.2-8.43,22.21c0.88,5.58,6.38,10.8,5.89,15.63c-0.71,6.93-6.68,11-1.92,18.13
		c3.54,5.32,8.32,7.59,13.64,8.55c8.87,1.59,19.27-0.48,28,1.84c0,0,17.62-0.3,20.55-1.16c5.74-1.69,8.89-3.28,10.73-8.26
		c1-2.56,1.6-5.11,0.28-7.37c-2.79-4.74-9.4-4.16-8.91-10C117.01,170.7,123.96,167.85,126.95,163.51z"/>
	<path id="Path_588" class="st4" d="M108.23,132.34c-0.75-1.12-1.76-2.36-3.09-2.46c-2.32-0.11-4.43-1.37-5.61-3.37
		c-1.69-2.58-2.2-5.83-2.91-6.67c-1.28-1.48-2.94-2.58-4.79-3.2c-3.47-1.22-7.29-0.88-10.49,0.91c-2.42,1.34-4.27,3.5-5.21,6.1
		c-1.13,2.82-0.75,6.79-3.33,8.7c-2.21,1.56-4.55,2.94-7,4.1c-3.39,1.71-6.48,3.28-8.46,6.2c-3.11,4.45-4.35,9.95-3.44,15.3
		c0.59,3.38,2.7,5.25,3.13,8.69c0.47,3.74-0.39,5.8-1.78,9.11c-2.27,5.46-3.21,9.06,0.39,14.58c2.2,3.38,9.83,6,11.76,4.58
		c1.53-1.11-4.92-2.74-6.26-11.37c-0.87-5.65,3.83-8.8,4.62-13.8c1-6.42-5.33-13.8-2.61-20c1-2.38,3.41-3.67,7.24-2.46
		c2,0.65,2.42,2.94,4.56,3.62c7.6,2.46,8.28-9.88,14.89-10.65c6.06-0.68,10.29,4.72,16.39,0.66
		C110.01,138.42,110.25,135.33,108.23,132.34z"/>
	<path id="Path_589" class="st5" d="M113.02,181.99c-0.67-4.17,0.67-7.37,2.89-10.58c1-1.53,2.33-2.46,0.82-4
		c-0.86-0.68-2.04-0.78-3-0.25c-1.66,0.81-3.18,1.88-4.49,3.19c-1.72,1.64-3.19,3.62-3.48,5.31c-1.15,1.11-2.15,2.35-3,3.7
		c-1.64,2.87-1.48,4.92-0.14,7.92c0.48,1.09,1.89,3.2,1.37,4.56c-0.45,1.18-2,1.17-2.56,2.2c-0.78,1.11-0.52,2.64,0.59,3.43
		c0.2,0.14,0.43,0.25,0.66,0.33c1.84,0.89,4.92,1.06,7.79,0.61c3.16-0.49,6.12-1.73,7-3.55c0.87-1.74,0.79-3.81-0.23-5.47
		C115.89,186.86,113.43,184.54,113.02,181.99z"/>
	<path id="Path_590" class="st6" d="M109.05,150.46l-0.46,0.46l-0.56,0.62c-0.82,0.93-1.77,2.22-2.74,3.51s-2,2.57-2.77,3.45
		c-0.16,0.19-0.33,0.34-0.47,0.49c0.02-0.25,0.06-0.5,0.13-0.74c0.15-0.72,0.2-1.46,0.3-2.18l0.13-1.07l0.09-1.06
		c0.06-0.7,0.12-1.38,0.16-2.06l0.09-2c0.06-1.28,0-2.46,0.06-3.61c0.02-1,0-2-0.08-3c-0.08-0.9-0.09-1.7-0.15-2.35l-0.22-2l0.11,2
		v2.35c0,0.91,0,1.93-0.07,3s-0.11,2.32-0.24,3.6l-0.18,2c-0.07,0.66-0.17,1.34-0.25,2l-0.14,1l-0.18,1
		c-0.13,0.7-0.22,1.42-0.4,2.14s-0.31,1.47-0.51,2.15l-0.32,1.06c-0.11,0.34-0.23,0.68-0.38,1c-0.53,1.4-1.14,2.77-1.82,4.1
		c-0.66,1.34-1.37,2.65-2,3.93s-1.32,2.52-1.9,3.71c-0.28,0.61-0.57,1.18-0.82,1.76l-0.36,0.82v-1.07l-0.09-3.18
		c0-1-0.16-2.1-0.25-3.13l-0.26-3.07c-0.1-1-0.25-2-0.36-3c-0.25-1.95-0.48-3.85-0.78-5.68l-0.82-5.29l-0.77-4.86l-0.65-4.39
		c-0.22-1.38-0.35-2.67-0.5-3.87l-0.39-3.28c-0.16-2-0.26-3.56-0.34-4.62l-0.12-1.64l0.06,1.64c0,1.07,0.1,2.64,0.2,4.63l0.29,3.28
		c0.11,1.2,0.2,2.5,0.38,3.88l0.51,4.41l0.61,4.92l0.65,5.3c0.24,1.84,0.41,3.73,0.6,5.68c0.08,1,0.2,2,0.27,3l0.16,3
		c0,1,0.14,2,0.15,3.1s0,2.11,0,3.18v6.38l-0.15,1.15c-0.01,0.16-0.03,0.33-0.06,0.49c0,0.15,0.16,2.93,0.15,3.48v1.68
		c0,1.49,0.03,3,0.09,4.51c-0.25-0.25-0.52-0.53-0.82-0.82l-1.07-1c-0.77-0.72-1.64-1.53-2.55-2.46c-0.96-0.92-1.84-1.93-2.62-3
		c-0.2-0.29-0.41-0.57-0.59-0.88l-0.56-1c-0.38-0.65-0.82-1.29-1.15-2l-1.12-2.06c-0.38-0.7-0.71-1.42-1.07-2.14
		c-0.17-0.36-0.36-0.72-0.53-1.09l-0.48-1.11l-0.48-1.11c-0.07-0.18-0.17-0.38-0.23-0.55l-0.2-0.57l-0.4-1.15
		c-0.14-0.38-0.22-0.77-0.34-1.15l-0.32-1.15l-0.27-1.15l-1-4.53c-0.16-0.74-0.38-1.46-0.56-2.16s-0.44-1.38-0.66-2
		c-0.23-0.65-0.5-1.28-0.82-1.89c-0.13-0.3-0.25-0.6-0.39-0.89s-0.23-0.57-0.34-0.86c-0.41-1.14-0.72-2.21-1-3.15
		c-0.24-0.82-0.54-1.63-0.88-2.41c-0.21-0.52-0.48-1.02-0.82-1.47c-0.09-0.12-0.19-0.24-0.3-0.34L70,148.97l0.11,0.12
		c0.11,0.1,0.21,0.22,0.3,0.34c0.32,0.46,0.57,0.96,0.76,1.48c0.26,0.66,0.53,1.48,0.82,2.46s0.56,2,0.95,3.17
		c0.09,0.29,0.2,0.58,0.31,0.88s0.25,0.6,0.37,0.9c0.23,0.62,0.52,1.23,0.72,1.89s0.43,1.34,0.6,2s0.35,1.42,0.49,2.15l0.89,4.56
		l0.24,1.17l0.3,1.18c0.11,0.39,0.18,0.82,0.31,1.17l0.37,1.15l0.19,0.57c0.07,0.21,0.15,0.38,0.23,0.58l0.37,0.91l-0.27-0.17
		c-0.26-0.16-0.5-0.33-0.74-0.51c-0.28-0.21-0.56-0.44-0.82-0.68l-0.93-0.82c-0.32-0.29-0.65-0.56-1-0.82l-1.14-0.82l-0.63-0.35
		l-0.33-0.17l-0.33-0.13l-0.33-0.13l-0.34-0.11c-0.23-0.07-0.46-0.14-0.68-0.19c-0.45-0.11-0.89-0.19-1.3-0.26l-1.16-0.21
		c-0.35-0.08-0.69-0.13-1-0.22c-0.24-0.06-0.48-0.13-0.72-0.22L66,169.6l0.6,0.27c0.23,0.1,0.47,0.19,0.71,0.26
		c0.33,0.11,0.66,0.2,1,0.27l1.15,0.28c0.41,0.09,0.82,0.2,1.26,0.32c0.22,0.04,0.44,0.1,0.64,0.2l0.32,0.12l0.32,0.15l0.32,0.15
		l0.28,0.17l0.57,0.36c0.35,0.26,0.68,0.53,1,0.82c0.28,0.28,0.65,0.59,1,0.88l0.89,0.82c0.28,0.27,0.57,0.52,0.82,0.75
		c0.26,0.22,0.53,0.42,0.82,0.6l0.34,0.24l0.3,0.16l0.56,0.32l0,0l0.09,0.22c0.16,0.38,0.34,0.74,0.51,1.11
		c0.34,0.73,0.66,1.47,1,2.18l1.08,2.1c0.35,0.69,0.75,1.34,1.1,2l0.54,1c0.19,0.33,0.4,0.63,0.61,0.94
		c0.78,1.16,1.67,2.24,2.64,3.24c0.91,0.93,1.75,1.76,2.5,2.46l1,1c0.31,0.32,0.57,0.62,0.82,0.88c0.43,0.45,0.75,0.86,1,1.16
		l0.14,7.15c0.07,2.27,0,4.55,0,6.82v5.06l-0.07,1.68l-0.59,13.16l-0.63,12.29l-0.15,2.89l-0.11,2.82l-0.21,5.35l-0.2,4.92
		l-0.09,2.29v2.15c0,2.78-0.06,5.2-0.08,7.2l-0.07,6.27h4.6l-0.13-6.27c0-2-0.09-4.42-0.15-7.2v-17.46l0.06-2.89l0.24-12.29
		c0.06-4.28,0.11-8.7,0.17-13.19v-3.38l-0.07-3.4c0-2.27-0.07-4.55-0.21-6.83c-0.23-4.56-0.5-18-0.51-18.32v-0.84l0.08-1
		c0.04-0.4,0.1-0.81,0.2-1.2c0.07-0.42,0.2-0.88,0.31-1.37s0.27-1,0.44-1.52s0.36-1.07,0.57-1.64s0.46-1.14,0.7-1.74
		c0.51-1.19,1.09-2.46,1.7-3.73s1.25-2.63,1.86-4c0.63-1.39,1.17-2.82,1.64-4.27c0.11-0.37,0.25-0.73,0.34-1.1l0.28-1.11v-0.19
		l0.27-0.21c0.14-0.14,0.34-0.31,0.51-0.51s0.37-0.41,0.55-0.66c0.77-1,1.64-2.3,2.54-3.64s1.74-2.67,2.46-3.64l0.51-0.65l0.43-0.48
		l0.41-0.39L109.05,150.46z"/>
	<path id="Path_591" class="st8" d="M192.51,251.38c-7.06-4-11.82,2.27-18.54,2.15s-2-2.69-4.46-7.54c-3.37-6.74-6-6.83-10.53-7.52
		c-2.34-0.36-5.38,1-8,0.55c-2.2-9.55-7.1-11.39-11.87-9.48c-1.98,0.86-3.78,2.09-5.29,3.64c-2.82,2.78-4.9,6.21-6.06,10
		c-2.65,9.46-5.35,5.79-11.8,6.06c-2.4,0.1-6.22-0.36-8,1.7c-3.5,4-0.55,7.63-4.92,11.06c-3.48,2.76-10.32-0.89-7.51,7.59
		c1.15,3.48,4.57,5.56,8.49,6.79c7,2.19,15.57,1.69,15.57,1.69l47.06-0.72c2.41,0.77,11.39-1.06,18.46-4.1
		c3.35-1.56,6.31-3.83,8.69-6.65C197.95,261.66,199.68,255.4,192.51,251.38z"/>
	<path id="Path_592" class="st6" d="M165.38,259.27l-0.53,0.2l-0.65,0.28c-0.93,0.41-2.06,1-3.19,1.56s-2.28,1.13-3.22,1.53
		l-0.55,0.22l0.16-0.32c0.15-0.3,0.28-0.61,0.38-0.93l0.17-0.46l0.11-0.45c0.07-0.3,0.16-0.6,0.21-0.89l0.13-0.82
		c0.09-0.55,0.09-1.07,0.13-1.55c0.05-0.43,0.05-0.87,0-1.3c-0.01-0.34-0.05-0.67-0.13-1l-0.21-0.87l0.1,0.87v1
		c0,0.39-0.08,0.82-0.12,1.3c-0.06,0.52-0.17,1.04-0.33,1.54L157.6,260c-0.09,0.29-0.21,0.58-0.33,0.88l-0.17,0.45l-0.22,0.45
		c-0.14,0.32-0.31,0.62-0.49,0.92c-0.2,0.31-0.39,0.63-0.61,0.93l-0.38,0.46c-0.12,0.16-0.3,0.3-0.44,0.46
		c-0.67,0.65-1.39,1.25-2.14,1.8c-0.82,0.58-1.64,1.15-2.39,1.71s-1.55,1.1-2.23,1.64c-0.33,0.26-0.67,0.52-1,0.77l-0.43,0.37v-1.88
		c-0.05-0.45-0.13-0.9-0.23-1.34l-0.25-1.3c-0.09-0.43-0.25-0.82-0.37-1.26c-0.23-0.82-0.5-1.62-0.82-2.41l-0.82-2.24l-0.82-2.07
		l-0.66-1.86c-0.23-0.58-0.36-1.13-0.51-1.64l-0.39-1.39c-0.16-0.82-0.25-1.52-0.32-2l-0.11-0.7v0.7c0,0.46,0.07,1.12,0.16,2
		l0.27,1.4c0.1,0.55,0.22,1.1,0.37,1.64l0.51,1.88l0.62,2.07l0.65,2.25c0.24,0.78,0.41,1.59,0.59,2.42c0.08,0.42,0.2,0.82,0.25,1.26
		l0.14,1.3c0.06,0.44,0.1,0.88,0.11,1.32l-0.07,1.36l-0.07,1.38l-0.1,1.35l-0.19,0.49c0,0.07-0.06,0.15-0.07,0.21
		s0.13,1.25,0.11,1.48s0,0.48,0,0.72v1.93l-0.91-0.34l-1.2-0.42l-2.87-1c-1.01-0.35-1.99-0.77-2.94-1.25
		c-0.21-0.12-0.46-0.24-0.66-0.36l-0.63-0.39c-0.42-0.27-0.88-0.54-1.28-0.82l-1.25-0.82c-0.42-0.29-0.82-0.59-1.19-0.89l-0.59-0.45
		l-0.53-0.47l-0.53-0.47c-0.09-0.07-0.17-0.15-0.25-0.23l-0.22-0.24l-0.4-0.49c-0.13-0.15-0.25-0.31-0.36-0.48l-0.34-0.48
		l-0.29-0.49l-1.08-1.92c-0.17-0.31-0.4-0.61-0.6-0.91s-0.48-0.58-0.71-0.86c-0.23-0.28-0.58-0.54-0.82-0.82l-0.43-0.38l-0.37-0.36
		c-0.4-0.42-0.77-0.87-1.12-1.33c-0.31-0.36-0.64-0.69-1-1c-0.27-0.25-0.57-0.45-0.9-0.61c-0.11-0.06-0.22-0.1-0.34-0.14h-0.01
		c0.11,0.04,0.22,0.08,0.33,0.14c0.3,0.16,0.58,0.37,0.82,0.61c0.32,0.31,0.62,0.64,0.89,1c0.31,0.39,0.61,0.82,1,1.34
		c0.11,0.13,0.22,0.25,0.34,0.37l0.4,0.38c0.25,0.25,0.56,0.52,0.82,0.82c0.26,0.3,0.46,0.57,0.65,0.82
		c0.2,0.29,0.38,0.59,0.53,0.91l0.94,1.93l0.25,0.49l0.31,0.5c0.1,0.17,0.22,0.34,0.34,0.5l0.4,0.48l0.2,0.25l0.25,0.25l0.4,0.39
		l-0.3-0.07c-0.25-0.06-0.54-0.11-0.82-0.2s-0.64-0.16-1-0.27l-1.06-0.32l-1.16-0.34c-0.39-0.11-0.82-0.22-1.29-0.33l-0.71-0.14
		c-0.13,0.01-0.25-0.02-0.37-0.07h-0.38l-0.38-0.07h-0.39l-0.78-0.07l-1.47-0.09l-1.32-0.07c-0.37,0-0.73-0.03-1.1-0.07
		c-0.28,0.02-0.55-0.01-0.82-0.08l-0.7-0.09l0.68,0.11c0.27,0.02,0.55,0.05,0.82,0.1c0.32,0,0.69,0.07,1.08,0.1l1.3,0.1l1.43,0.11
		c0.24,0.01,0.48,0.03,0.72,0.07h0.36l0.36,0.06l0.36,0.06l0.32,0.07l0.65,0.15c0.4,0.11,0.82,0.22,1.17,0.34l1.06,0.36l1,0.34
		c0.31,0.11,0.65,0.2,0.94,0.3c0.29,0.1,0.62,0.17,0.89,0.24l0.39,0.1l0.34,0.07l0.64,0.12l0,0l0.1,0.09l0.56,0.47
		c0.39,0.3,0.74,0.61,1.14,0.91l1.2,0.88c0.39,0.29,0.82,0.56,1.22,0.82l0.6,0.4c0.2,0.14,0.45,0.26,0.67,0.39
		c0.97,0.51,1.97,0.96,3,1.33l2.81,1l1.16,0.42l0.93,0.36c0.49,0.18,0.82,0.35,1.12,0.48v0.22c0.81-0.25,1.63-0.44,2.46-0.57
		c-0.07-2.16-0.11-4.41-0.11-4.47v-0.17c-0.02-0.06-0.02-0.12,0-0.18l0.11-0.43c0.07-0.18,0.16-0.35,0.25-0.52
		c0.11-0.21,0.23-0.41,0.38-0.59c0.16-0.23,0.33-0.45,0.52-0.66c0.21-0.25,0.44-0.49,0.68-0.71c0.24-0.25,0.54-0.5,0.82-0.75
		c0.6-0.52,1.28-1.07,2-1.64s1.47-1.15,2.2-1.75c0.71-0.56,1.38-1.18,2-1.85c0.14-0.15,0.28-0.31,0.4-0.48l0.34-0.48v-0.08l0.32-0.1
		c0.16-0.07,0.39-0.14,0.59-0.23s0.43-0.18,0.64-0.29c1.03-0.5,2.03-1.04,3-1.64c1-0.62,2-1.18,2.88-1.64l0.59-0.29l0.49-0.21
		l0.47-0.17L165.38,259.27z"/>
</g>
<path id="Path_566" class="st9" d="M457.3,89.11c-5.61-3.17-7.65-10.59-13.26-13.6c-7-3.75-11.72-1.58-14.82,2.94
	s-4.6,11.61-5,17.34c-1.2,3.08-3.57,5.44-9.45,6.28c-8.43,1.2-19-1.52-21.9,9.72c-0.63,3.32-0.47,6.75,0.48,10
	c1.64,6.17,5.41,12.08,11,11.54c2.78-4.6,5.41-22.94,11.77-22.84c2.51,0,4.24,3.44,6.64,4.56c4.87,2.28,6.38-0.43,8.76-4.69
	c2.06-3.7,2.65-10.65,5.63-13.45c3.54-3.28,5.24-0.3,8.27,2c8.19,6.25,13.73,1.34,22-2.07C468.72,88.5,462.13,91.84,457.3,89.11z"/>
<g>
	<path id="Path_569" class="st4" d="M1652.48,134.01c5.14-7.29,7.23-19.82,2.06-27.72c-5.48-8.38-15.68-13.53-25.87-16.38
		c-4.57-1.27-8.51-1.94-11.27-5.35c-4.12-5.16-1.93-9.07-9.32-12.73c-7.06-3.5-15.97-4.45-21.97,0.43s-5.37,12.78-11.21,17.66
		c-4.86,4.03-12.3,4.6-17.58,8.12c-9.25,6.23-12.93,20.22-11.43,29.56c1.22,7.41,8.64,14.38,7.98,20.75
		c-0.98,9.22-9.04,14.57-2.59,24.13c4.8,7.09,11.27,10.11,18.47,11.37c12.01,2.12,26.11-0.64,37.95,2.43c0,0,23.88-0.42,27.84-1.48
		c7.83-2.25,12.05-4.36,14.57-11c1.29-3.41,2.16-6.8,0.37-9.78c-3.78-6.32-12.75-5.54-12.07-13.34
		C1639,143.57,1648.43,139.79,1652.48,134.01z"/>
	<path id="Path_571" class="st5" d="M1633.59,158.61c-0.9-5.54,0.9-9.71,3.91-14.08c1.48-2.05,3.16-3.25,1.1-5.34
		c-1.18-0.88-2.76-1.01-4.06-0.33c-2.25,1.07-4.3,2.5-6.08,4.24c-2.33,2.19-4.33,4.86-4.73,7.07c-1.57,1.47-2.95,3.13-4.12,4.94
		c-2.27,3.81-2.02,6.51-0.19,10.54c0.65,1.48,2.55,4.27,1.85,6.08c-0.61,1.59-2.74,1.48-3.47,2.96c-1.04,1.48-0.68,3.52,0.8,4.56
		c0.28,0.19,0.58,0.35,0.91,0.45c2.43,1.22,6.63,1.48,10.55,0.8c4.28-0.65,8.3-2.3,9.53-4.73c1.19-2.31,1.08-5.08-0.3-7.29
		C1637.49,165.08,1634.16,162,1633.59,158.61z"/>
	<path id="Path_572" class="st6" d="M1628.21,116.65l-0.62,0.61l-0.76,0.84c-1.08,1.22-2.43,2.96-3.72,4.67
		c-1.17,1.59-2.42,3.13-3.75,4.6c-0.2,0.23-0.41,0.45-0.64,0.65c0.02-0.33,0.08-0.66,0.18-0.98c0.19-0.96,0.27-1.94,0.42-2.96
		l0.18-1.48l0.12-1.48c0-0.93,0.16-1.85,0.22-2.74l0.12-2.62c0.09-1.7,0-3.32,0.09-4.86c0.07-1.35,0.03-2.71-0.1-4.06
		c-0.1-1.2-0.12-2.25-0.21-3.13l-0.3-2.73l0.16,2.73v3.13c0,1.2,0,2.56-0.09,4.05c-0.09,1.48-0.16,3.08-0.31,4.79l-0.24,2.61
		c-0.1,0.89-0.24,1.79-0.36,2.71l-0.18,1.38l-0.24,1.39c-0.18,0.93-0.3,1.88-0.55,2.85c-0.25,0.96-0.43,1.94-0.7,2.86l-0.44,1.48
		c-0.13,0.47-0.34,0.93-0.5,1.39c-0.71,1.87-1.52,3.69-2.43,5.47c-0.9,1.78-1.85,3.53-2.77,5.22c-0.92,1.69-1.79,3.34-2.58,4.95
		c-0.37,0.8-0.77,1.57-1.1,2.34l-0.49,1.13v-1.63l-0.12-4.22c0-1.39-0.24-2.79-0.33-4.17l-0.37-4.06c-0.13-1.33-0.33-2.65-0.49-3.94
		c-0.34-2.59-0.65-5.13-1.05-7.56l-1.11-7.04l-1.07-6.45l-0.87-5.84c-0.3-1.84-0.47-3.56-0.68-5.14l-0.53-4.37
		c-0.22-2.65-0.37-4.73-0.47-6.15l-0.16-2.18l0.1,2.18c0,1.48,0.13,3.51,0.27,6.15l0.39,4.45c0.15,1.59,0.27,3.32,0.5,5.16l0.7,5.93
		l0.83,6.49l0.87,7.06c0.31,2.43,0.56,4.95,0.82,7.56c0.12,1.3,0.28,2.61,0.37,3.93l0.24,4.03c0,1.36,0.19,2.73,0.19,4.12v12.72
		l-0.19,1.48v0.65c0,0.21,0.21,3.88,0.21,4.64v2.24l0.12,6.02c-0.34-0.34-0.7-0.71-1.1-1.1l-1.48-1.36
		c-1.04-0.96-2.21-2.05-3.45-3.22c-1.3-1.25-2.48-2.61-3.54-4.06c-0.29-0.39-0.56-0.8-0.8-1.22l-0.77-1.22
		c-0.5-0.86-1.07-1.72-1.48-2.62l-1.48-2.73c-0.5-0.92-0.96-1.88-1.48-2.85c-0.24-0.49-0.5-0.96-0.71-1.48l-0.65-1.48l-0.65-1.48
		c-0.1-0.24-0.24-0.5-0.31-0.73l-0.27-0.77l-0.55-1.48c-0.19-0.5-0.3-1.02-0.44-1.48l-0.43-1.48l-0.37-1.48l-1.38-6.08
		c-0.22-0.98-0.5-1.93-0.76-2.88c-0.25-0.95-0.61-1.84-0.89-2.73c-0.28-0.89-0.71-1.7-1.05-2.52c-0.16-0.42-0.36-0.8-0.52-1.22
		s-0.31-0.77-0.44-1.16c-0.56-1.48-0.98-2.96-1.39-4.2c-0.34-1.09-0.75-2.16-1.22-3.2c-0.28-0.7-0.65-1.35-1.1-1.96
		c-0.12-0.16-0.26-0.31-0.42-0.44l-0.16-0.15l0.15,0.15c0.15,0.14,0.29,0.29,0.4,0.46c0.43,0.61,0.78,1.27,1.04,1.97
		c0.37,0.87,0.71,1.97,1.1,3.22c0.39,1.25,0.77,2.68,1.29,4.21c0.12,0.39,0.28,0.77,0.43,1.22c0.15,0.44,0.34,0.79,0.5,1.22
		c0.31,0.82,0.7,1.65,0.98,2.52c0.28,0.87,0.58,1.78,0.82,2.71c0.24,0.93,0.47,1.9,0.67,2.86l1.22,6.08l0.33,1.48l0.4,1.57
		c0.15,0.52,0.24,1.05,0.43,1.57l0.5,1.48l0.25,0.77c0.1,0.28,0.21,0.5,0.3,0.77l0.5,1.22l-0.37-0.24c-0.3-0.21-0.64-0.37-1.01-0.67
		c-0.37-0.3-0.77-0.56-1.22-0.9l-1.22-1.05c-0.43-0.38-0.89-0.75-1.38-1.13c-0.49-0.37-1.02-0.73-1.48-1.1l-0.84-0.47l-0.44-0.24
		l-0.44-0.18l-0.44-0.18l-0.47-0.13c-0.3-0.09-0.61-0.17-0.92-0.24l-1.76-0.36l-1.57-0.3c-0.47-0.1-0.92-0.18-1.3-0.3
		c-0.33-0.08-0.66-0.18-0.98-0.3l-0.83-0.31l0.82,0.36c0.32,0.13,0.65,0.24,0.98,0.34c0.37,0.13,0.82,0.24,1.29,0.37l1.48,0.37
		l1.7,0.43c0.3,0.04,0.59,0.14,0.86,0.28l0.44,0.15l0.43,0.19l0.44,0.19l0.37,0.22l0.77,0.49c0.47,0.37,0.98,0.71,1.48,1.13
		c0.46,0.37,0.89,0.78,1.29,1.22l1.22,1.13c0.37,0.37,0.77,0.68,1.13,0.98c0.36,0.3,0.76,0.56,1.07,0.8
		c0.14,0.12,0.3,0.22,0.46,0.31l0.4,0.22l0.77,0.43l0,0l0.12,0.3c0.22,0.5,0.46,0.98,0.7,1.48c0.47,0.98,0.9,1.96,1.39,2.96
		l1.48,2.79c0.47,0.92,1.01,1.78,1.48,2.65l0.73,1.29c0.25,0.43,0.55,0.85,0.82,1.22c1.07,1.54,2.27,2.97,3.59,4.3
		c1.22,1.22,2.43,2.34,3.39,3.32l1.39,1.38c0.43,0.43,0.77,0.82,1.11,1.22c0.48,0.47,0.94,0.96,1.36,1.48l0.18,9.52
		c0.1,2.96,0,6.08,0,9.07v6.75l-0.1,2.22l-0.8,17.51l-1.02,16.41l-0.19,3.85l-0.16,3.75l-0.3,7.12l-0.27,6.55l-0.12,2.96v2.86
		c0,3.65,0,6.92-0.1,9.58l-0.1,8.35h6.23l-0.16-8.35l-0.21-9.58v-26.97l0.33-16.4c0-5.69,0.16-11.58,0.24-17.55v-4.6l-0.1-4.45
		c0-2.96-0.1-6.08-0.3-9.1c-0.31-6.08-0.68-24.06-0.7-24.39v-1.11l0.1-1.32c0.04-0.54,0.13-1.08,0.27-1.6
		c0.1-0.56,0.27-1.22,0.43-1.82c0.16-0.61,0.37-1.3,0.59-2.02c0.22-0.71,0.5-1.48,0.77-2.18c0.27-0.7,0.62-1.48,0.95-2.31
		c0.68-1.59,1.48-3.25,2.3-4.97c0.82-1.72,1.7-3.51,2.52-5.34c0.85-1.85,1.6-3.74,2.24-5.68c0.15-0.49,0.33-0.96,0.44-1.48
		l0.37-1.48v-0.25l0.37-0.3c0.24-0.21,0.48-0.44,0.7-0.68c0.24-0.27,0.5-0.55,0.76-0.87c1.04-1.29,2.25-3.07,3.44-4.86
		s2.36-3.56,3.34-4.86l0.68-0.86l0.58-0.64l0.56-0.52L1628.21,116.65z"/>
</g>
<path id="Path_573" class="st4" d="M413,168c3.45-5,4.84-13.53,1.38-18.93c-3.67-5.74-10.51-9.24-17.35-11.18
	c-3.07-0.88-5.74-1.33-7.55-3.66c-2.76-3.53-1.29-6.2-6.24-8.69c-4.73-2.38-10.7-3.08-14.75,0.29s-3.6,8.73-7.52,12.06
	c-3.28,2.75-8.25,3.13-11.79,5.56c-6.2,4.25-8.66,13.81-7.66,20.18c0.82,5.07,5.8,9.83,5.35,14.2c-0.65,6.3-6.06,10-1.75,16.48
	c3.22,4.84,7.56,6.9,12.39,7.76c8.06,1.44,17.5-0.43,25.4,1.64c0,0,16-0.28,18.68-1.06c5.25-1.53,8.08-3,9.75-7.51
	c0.86-2.33,1.45-4.65,0.25-6.69c-2.54-4.31-8.55-3.79-8.1-9.09C404,174.54,410.28,171.95,413,168z"/>
<path id="Path_574" class="st4" d="M396,139.69c-0.69-1-1.64-2.15-2.8-2.2c-2.1-0.12-4-1.28-5.06-3.1c-1.53-2.34-2-5.29-2.65-6.06
	c-1.16-1.35-2.67-2.36-4.36-2.92c-3.15-1.11-6.62-0.81-9.53,0.82c-2.2,1.21-3.88,3.18-4.74,5.54c-1,2.56-0.68,6.18-3,7.91
	c-2.01,1.42-4.13,2.67-6.35,3.73c-3.08,1.56-5.89,3-7.69,5.63c-2.87,4.05-4.01,9.07-3.19,13.96c0.53,3.08,2.46,4.78,2.84,7.9
	c0.43,3.4-0.36,5.27-1.64,8.28c-2.07,5-2.92,8.19,0.34,13.24c2,3.08,8.91,5.46,10.65,4.16c1.39-1-4.48-2.46-5.7-10.33
	c-0.82-5.13,3.48-8,4.2-12.54c0.92-5.83-4.84-12.54-2.37-18.15c1-2.15,3.1-3.34,6.55-2.23c1.84,0.59,2.2,2.67,4.15,3.28
	c6.91,2.2,7.52-9,13.53-9.65c5.5-0.62,9.35,4.29,14.91,0.59C397.6,145.21,397.82,142.4,396,139.69z"/>
<path id="Path_575" class="st5" d="M400.33,184.82c-0.62-3.79,0.62-6.67,2.62-9.61c1-1.39,2.11-2.22,0.73-3.64
	c-0.79-0.61-1.86-0.69-2.73-0.22c-1.52,0.73-2.9,1.71-4.1,2.89c-1.57,1.5-2.89,3.28-3.16,4.83c-1.05,1.01-1.98,2.14-2.76,3.37
	c-1.52,2.61-1.35,4.44-0.12,7.2c0.44,1,1.71,2.91,1.25,4.14c-0.41,1.07-1.84,1.07-2.34,2c-0.71,1.03-0.44,2.44,0.58,3.14
	c0.17,0.12,0.36,0.21,0.56,0.28c2.26,0.85,4.72,1.05,7.08,0.55c2.88-0.45,5.56-1.57,6.4-3.22c0.81-1.59,0.73-3.48-0.2-5
	C402.95,189.21,400.71,187.11,400.33,184.82z"/>
<path id="Path_576" class="st6" d="M396.73,156.15l-0.42,0.42l-0.51,0.57c-0.87,1.02-1.7,2.09-2.46,3.19
	c-0.78,1.1-1.62,2.15-2.52,3.14c-0.15,0.17-0.29,0.31-0.43,0.45c0.02-0.23,0.06-0.45,0.12-0.67c0.13-0.66,0.18-1.33,0.27-2l0.12-1
	l0.08-1c0-0.64,0.11-1.26,0.15-1.87l0.08-1.79c0.06-1.16,0-2.27,0.06-3.28c0.04-0.92,0.02-1.85-0.07-2.77
	c-0.07-0.82-0.08-1.54-0.14-2.13l-0.2-1.85l0.11,1.86v2.13c0,0.82,0,1.75-0.06,2.77s-0.11,2.11-0.21,3.28l-0.16,1.78
	c-0.07,0.61-0.16,1.22-0.23,1.85l-0.12,1l-0.16,1c-0.12,0.64-0.2,1.29-0.36,1.94s-0.29,1.33-0.46,2l-0.29,1
	c-0.09,0.32-0.23,0.64-0.34,1c-0.48,1.28-1.03,2.52-1.64,3.74c-0.61,1.22-1.25,2.41-1.85,3.57s-1.2,2.29-1.73,3.38
	c-0.25,0.55-0.52,1.07-0.74,1.64l-0.33,0.77V179l-0.08-2.88c0-1-0.15-1.91-0.22-2.84l-0.24-2.78c-0.09-0.92-0.22-1.81-0.33-2.7
	c-0.22-1.77-0.43-3.5-0.7-5.16l-0.74-4.81l-0.7-4.42l-0.59-4c-0.2-1.25-0.32-2.46-0.45-3.51l-0.35-3c-0.15-1.8-0.24-3.23-0.31-4.2
	l-0.11-1.48l0.06,1.49c0,1,0.09,2.39,0.18,4.2l0.21,2.92c0.1,1.09,0.18,2.27,0.34,3.52l0.46,4l0.56,4.43l0.58,4.82
	c0.21,1.64,0.38,3.38,0.54,5.15c0.08,0.88,0.19,1.79,0.25,2.69l0.15,2.75c0,0.93,0.12,1.86,0.13,2.81s0,1.92,0,2.88v5.79l-0.13,1
	c0.02,0.15,0.02,0.3,0,0.45c0,0.14,0.14,2.65,0.13,3.16v1.52L381,195c-0.23-0.23-0.47-0.48-0.74-0.75l-1-0.93
	c-0.7-0.66-1.48-1.39-2.31-2.2c-0.87-0.85-1.67-1.78-2.38-2.77c-0.17-0.26-0.38-0.52-0.54-0.82l-0.52-0.87
	c-0.34-0.58-0.71-1.18-1-1.79l-1.14-1.87c-0.34-0.63-0.65-1.29-1-1.94c-0.16-0.33-0.33-0.66-0.48-1l-0.43-1l-0.43-1
	c-0.08-0.16-0.15-0.33-0.21-0.5l-0.18-0.52l-0.36-1c-0.13-0.34-0.2-0.7-0.3-1l-0.29-1l-0.25-1l-0.92-4.1
	c-0.15-0.67-0.34-1.32-0.51-2s-0.4-1.25-0.6-1.86s-0.48-1.16-0.7-1.72c-0.12-0.28-0.23-0.54-0.35-0.82
	c-0.12-0.27-0.22-0.54-0.3-0.82c-0.37-1-0.66-2-0.93-2.86c-0.23-0.75-0.5-1.48-0.82-2.19c-0.19-0.48-0.44-0.93-0.74-1.34
	c-0.08-0.11-0.17-0.22-0.28-0.31l-0.11-0.1l0.1,0.1c0.1,0.09,0.19,0.2,0.27,0.31c0.29,0.41,0.53,0.87,0.7,1.34
	c0.24,0.6,0.48,1.34,0.74,2.2s0.52,1.83,0.86,2.88c0.08,0.26,0.18,0.53,0.29,0.82s0.23,0.54,0.34,0.82
	c0.21,0.56,0.47,1.12,0.66,1.72s0.38,1.21,0.54,1.85s0.32,1.29,0.45,2l0.82,4.1l0.22,1.07l0.26,1.07c0.1,0.35,0.16,0.72,0.28,1.07
	l0.34,1l0.17,0.52c0.07,0.19,0.14,0.35,0.2,0.52l0.34,0.82l-0.25-0.16c-0.2-0.14-0.43-0.26-0.67-0.46s-0.51-0.38-0.78-0.62
	l-0.82-0.72c-0.29-0.25-0.61-0.52-0.93-0.77s-0.68-0.5-1-0.75l-0.57-0.32l-0.29-0.16l-0.29-0.12l-0.3-0.12l-0.31-0.1
	c-0.21-0.06-0.42-0.13-0.62-0.17l-1.18-0.24l-1-0.2c-0.32-0.07-0.62-0.12-0.88-0.2c-0.22-0.05-0.44-0.12-0.66-0.2l-0.56-0.21
	l0.54,0.25c0.21,0.09,0.43,0.17,0.65,0.24c0.25,0.09,0.55,0.16,0.87,0.25l1,0.25c0.37,0.08,0.75,0.18,1.15,0.29
	c0.2,0.03,0.4,0.1,0.58,0.19l0.29,0.1l0.29,0.13l0.29,0.13l0.25,0.16l0.52,0.33c0.33,0.24,0.64,0.5,0.94,0.77
	c0.29,0.28,0.59,0.53,0.86,0.82l0.82,0.77c0.25,0.25,0.52,0.47,0.76,0.67s0.5,0.38,0.71,0.55c0.1,0.08,0.2,0.16,0.31,0.22l0.27,0.16
	l0.51,0.29l0,0l0.08,0.2c0.15,0.34,0.31,0.67,0.46,1c0.31,0.66,0.61,1.34,0.93,2l1,1.91c0.32,0.63,0.67,1.22,1,1.82l0.49,0.88
	c0.17,0.28,0.35,0.56,0.55,0.82c0.71,1.05,1.52,2.03,2.4,2.94c0.82,0.82,1.59,1.64,2.27,2.27l0.93,0.93
	c0.29,0.29,0.52,0.56,0.75,0.82c0.4,0.41,0.69,0.82,0.91,1.06l0.12,6.5c0.07,2.06,0,4.1,0,6.2V214l-0.07,1.53l-0.66,12l-0.57,11.19
	l-0.13,2.63l-0.11,2.57l-0.2,4.86l-0.18,4.47l-0.08,2.07v2l-0.07,6.55l-0.07,5.74h4.18l-0.12-5.74l-0.13-6.55v-18.47l0.22-11.19
	c0-3.88,0.11-7.91,0.16-12v-3.12l-0.07-3.09c0-2.07-0.07-4.1-0.2-6.21c-0.21-4.15-0.46-16.39-0.46-16.65v-0.76l0.07-0.91
	c0.04-0.37,0.1-0.74,0.18-1.1c0.06-0.4,0.18-0.82,0.28-1.25s0.25-0.89,0.4-1.38s0.33-1,0.52-1.48s0.42-1,0.64-1.58
	c0.46-1.08,1-2.21,1.54-3.39s1.14-2.39,1.7-3.65c0.57-1.26,1.07-2.56,1.5-3.88c0.1-0.34,0.22-0.66,0.3-1l0.25-1V165l0.25-0.2
	c0.13-0.12,0.31-0.29,0.47-0.46c0.18-0.19,0.35-0.38,0.5-0.59c0.7-0.88,1.51-2.09,2.3-3.28s1.58-2.46,2.24-3.28l0.46-0.59l0.38-0.44
	l0.37-0.36L396.73,156.15z"/>
<path id="Path_578" class="st6" d="M415.62,254.84l-0.43,0.14l-0.52,0.19c-0.74,0.28-1.64,0.66-2.53,1c-0.89,0.34-1.81,0.76-2.56,1
	l-0.43,0.15l0.13-0.21c0.12-0.2,0.22-0.41,0.3-0.63l0.13-0.31l0.1-0.3c0.06-0.2,0.13-0.4,0.17-0.6l0.11-0.57
	c0.05-0.33,0.09-0.67,0.11-1v-0.88c-0.01-0.23-0.05-0.45-0.11-0.67l-0.21-0.61l0.08,0.59v0.68c0,0.26-0.07,0.56-0.1,0.88
	c-0.05,0.34-0.14,0.68-0.26,1l-0.19,0.57c-0.07,0.2-0.17,0.39-0.26,0.59l-0.14,0.3l-0.18,0.3c-0.11,0.22-0.25,0.42-0.39,0.62
	c-0.16,0.2-0.3,0.43-0.49,0.63l-0.3,0.31c-0.1,0.11-0.24,0.2-0.35,0.31c-0.54,0.44-1.11,0.84-1.7,1.21
	c-0.62,0.39-1.28,0.82-1.91,1.15c-0.61,0.34-1.2,0.7-1.77,1.1c-0.26,0.18-0.53,0.35-0.75,0.52l-0.34,0.25v-1.27
	c-0.04-0.3-0.1-0.6-0.18-0.9l-0.2-0.88c-0.08-0.28-0.18-0.55-0.29-0.82c-0.2-0.56-0.38-1.11-0.63-1.64l-0.66-1.52l-0.63-1.39
	l-0.53-1.25c-0.15-0.36-0.29-0.73-0.4-1.11l-0.31-0.94c-0.12-0.57-0.2-1-0.25-1.33l-0.09-0.47v0.48c0,0.31,0.06,0.76,0.12,1.34
	l0.22,1c0.08,0.38,0.17,0.75,0.29,1.11l0.4,1.26l0.49,1.4l0.52,1.52c0.18,0.54,0.34,1.09,0.47,1.64c0.07,0.28,0.16,0.57,0.2,0.82
	l0.12,0.87c0.05,0.29,0.08,0.59,0.09,0.89v0.92l-0.06,0.93l-0.07,0.92l-0.15,0.34c0,0.05-0.02,0.1-0.06,0.14
	c0.01,0.33,0.04,0.67,0.09,1c-0.01,0.18,0,0.32,0,0.48v1.3l-0.73-0.23l-1-0.28l-2.28-0.66c-0.8-0.23-1.58-0.5-2.34-0.82l-0.52-0.25
	l-0.5-0.27c-0.33-0.18-0.7-0.36-1-0.56l-1-0.57c-0.34-0.2-0.63-0.4-1-0.6l-0.47-0.3l-0.42-0.31l-0.43-0.31l-0.2-0.16l-0.17-0.16
	l-0.35-0.33c-0.1-0.1-0.2-0.21-0.29-0.33l-0.27-0.33l-0.27-0.37l-0.82-1.3c-0.15-0.21-0.31-0.42-0.48-0.61
	c-0.18-0.2-0.37-0.4-0.57-0.58c-0.19-0.19-0.47-0.36-0.68-0.53l-0.34-0.25l-0.29-0.25c-0.36-0.33-0.63-0.63-0.89-0.89
	c-0.24-0.24-0.49-0.47-0.76-0.68c-0.22-0.17-0.46-0.31-0.71-0.41l-0.27-0.09l0,0l0.26,0.1c0.24,0.11,0.47,0.25,0.67,0.42
	c0.25,0.21,0.49,0.44,0.7,0.69c0.25,0.27,0.49,0.57,0.82,0.9l0.27,0.25l0.32,0.25c0.2,0.17,0.45,0.35,0.63,0.53
	c0.19,0.18,0.36,0.37,0.52,0.58c0.15,0.19,0.29,0.4,0.42,0.61l0.75,1.3l0.2,0.34l0.25,0.34c0.08,0.12,0.17,0.23,0.27,0.34l0.32,0.33
	l0.16,0.16l0.2,0.16l0.32,0.26h-0.24c-0.23-0.02-0.45-0.06-0.66-0.14l-0.77-0.18l-0.82-0.21l-0.92-0.23c-0.31-0.08-0.67-0.15-1-0.22
	l-0.57-0.09h-1.82l-1.17-0.06h-1.87l-0.66-0.06l-0.56-0.06l0.54,0.07c0.22-0.01,0.44,0.02,0.65,0.07l0.86,0.07l1,0.07l1.14,0.07
	h1.68l0.52,0.1c0.32,0.07,0.65,0.15,0.93,0.23l0.82,0.25l0.82,0.23l0.75,0.2c0.22,0.07,0.5,0.11,0.7,0.16l0.31,0.07h0.27l0.51,0.08
	l0,0l0.07,0.07l0.45,0.31c0.3,0.2,0.58,0.42,0.9,0.61l1,0.59c0.31,0.2,0.66,0.38,1,0.57l0.48,0.27l0.53,0.26
	c0.77,0.35,1.56,0.65,2.36,0.9l2.24,0.69l0.92,0.29l0.74,0.25c0.39,0.12,0.68,0.24,0.89,0.32v0.15c0.66-0.17,1.33-0.3,2-0.39
	c-0.06-1.46-0.08-3-0.08-3v-0.24l0.09-0.29c0-0.11,0.12-0.22,0.2-0.35c0.09-0.14,0.19-0.28,0.3-0.4c0.13-0.16,0.27-0.3,0.42-0.44
	c0.17-0.17,0.35-0.33,0.54-0.48c0.19-0.16,0.43-0.34,0.66-0.51c0.48-0.35,1-0.71,1.59-1.1s1.17-0.78,1.74-1.18
	c0.55-0.38,1.07-0.79,1.56-1.25c0.11-0.1,0.22-0.21,0.32-0.32l0.26-0.32v-0.06l0.25-0.07l0.48-0.16c0.16-0.06,0.34-0.12,0.51-0.2
	c0.71-0.29,1.54-0.69,2.35-1.08s1.64-0.82,2.29-1.08l0.47-0.2l0.39-0.15l0.38-0.11L415.62,254.84z"/>
<path id="Path_579" class="st4" d="M342.89,114.46c5.74-5.74,5.63-13.26,0.22-19c-5.2-5.48-7.45-10.81-17.65-11.37
	c-9-0.49-10.16-2.79-14.57-7.77c-3-3.34-7.07-7.38-12.79-7.38c-4.92-0.07-9.83,2-12.5,5.11c-3.82,4.48-1.89,8.36-3.28,13.11
	c-1.09,3.84-3.52,5.1-8.27,4.75c-7-0.52-15.36,0.14-19.4,4.86c-3.39,4-5.18,9-4.1,13.73c1,4.54,7.5,8.79,6.91,12.72
	c-0.64,4.3-5.09,7.62-4.33,12.13c0.72,4.29,5.43,5.88,10.65,6.76c7.92,1.33,3.24,6.13,2.58,10.41c-1.16,7.55,1.81,14.42,12.18,17.21
	c4.19,0.95,8.48,1.44,12.78,1.47c2.4,0.09,4.87-0.1,7.26,0c2.64,0.16,4.84,1.13,7.38,1.38c7,0.7,14.68-5,20.49-7.71
	c3.5-1.64,8.45-3.63,7.06-7.37c-0.87-2.33-4.21-3.95-4-6.76c0.39-5,9-7.73,11.32-12.07c1.11-2.08,1.87-4.16,0.32-6
	c-3.28-3.86-11-3.39-10.46-8.15C331.22,120.31,339.42,118,342.89,114.46z"/>
<path id="Path_580" class="st5" d="M314.52,85.63c-4.92-2.46-6.74-8.19-11.69-10.49c-6.15-2.89-10.33-1.22-13.06,2.27
	s-4.1,9-4.43,13.37c-1,2.38-3.14,4.2-8.33,4.84c-7.43,0.93-16.74-1.17-19.31,7.49c-0.56,2.55-0.41,5.21,0.42,7.69
	c1.42,4.76,4.76,9.32,9.73,8.9c2.46-3.55,4.77-17.68,10.37-17.61c2.2,0,3.74,2.65,5.85,3.51c4.29,1.75,5.63-0.33,7.72-3.61
	c1.81-2.84,2.33-8.19,5-10.37c3.12-2.56,4.61-0.24,7.28,1.54c7.24,4.83,12.1,1,19.4-1.59C324.59,85.14,318.78,87.74,314.52,85.63z"
	/>
<path id="Path_581" class="st5" d="M325.26,128.1c-3.78-2.28-6.08,1.64-6.28,5.24c-0.06,1.12,0.09,2.25,0.44,3.32
	c-2.08,2.13-3.4,4.88-3.77,7.83c-0.2,3.1,1.25,4.5-0.23,7.52c-1,2.07-3.18,3.48-4.22,5.43c-1.71,3.22-1.95,9.63,2.46,10.2
	c2.29,0.3,5.3-1,7.74-2.88c2.08-1.57,3.75-3.48,4.18-5c1.08-3.87-1.77-7.6-1.25-11.53c0.66-4.92,7.66-6.79,8.14-10.65
	C332.77,135.21,327.35,129.36,325.26,128.1z"/>
<path id="Path_582" class="st6" d="M327,131.47c-0.23,0.08-0.54,0.13-0.89,0.22s-0.75,0.14-1.17,0.22l-1.41,0.21
	c-0.5,0.07-1,0.16-1.58,0.26c-0.28,0.03-0.55,0.09-0.82,0.18l-0.43,0.11l-0.4,0.13l-0.4,0.13l-0.4,0.16l-0.77,0.34
	c-0.48,0.24-0.95,0.51-1.39,0.82c-0.4,0.3-0.82,0.57-1.25,0.82l-1.14,0.82c-0.36,0.25-0.72,0.46-1,0.66s-0.64,0.34-0.9,0.5
	l-0.33,0.17l0.45-0.9c0.09-0.19,0.19-0.36,0.28-0.57l0.23-0.57l0.45-1.14c0.16-0.38,0.25-0.77,0.38-1.15l0.35-1.15l0.29-1.15
	l1.08-4.48c0.17-0.73,0.41-1.43,0.61-2.12s0.49-1.35,0.73-2s0.6-1.26,0.88-1.86c0.15-0.3,0.29-0.6,0.45-0.88
	c0.15-0.28,0.28-0.57,0.39-0.87c0.47-1.14,0.82-2.2,1.15-3.12c0.29-0.81,0.62-1.6,1-2.38c0.24-0.53,0.55-1.02,0.93-1.46
	c0.11-0.13,0.23-0.24,0.36-0.34l0.14-0.11l-0.14,0.11c-0.14,0.1-0.26,0.21-0.37,0.34c-0.4,0.43-0.74,0.92-1,1.44
	c-0.4,0.77-0.76,1.57-1.07,2.38c-0.38,0.93-0.76,2-1.25,3.1c-0.12,0.28-0.25,0.55-0.4,0.82c-0.14,0.25-0.32,0.57-0.47,0.88
	c-0.3,0.61-0.67,1.21-1,1.87c-0.31,0.65-0.58,1.32-0.82,2c-0.25,0.68-0.47,1.4-0.68,2.13l-1.23,4.47l-0.33,1.14l-0.41,1.11
	c-0.14,0.38-0.24,0.75-0.41,1.13l-0.49,1.13l-0.25,0.57c-0.09,0.19-0.18,0.37-0.29,0.54l-0.59,1.1l-0.58,1.09
	c-0.2,0.36-0.43,0.71-0.65,1.07c-0.44,0.7-0.82,1.42-1.31,2.11l-0.27,0.4c-0.02-0.18-0.04-0.36-0.08-0.54
	c-0.08-0.45-0.19-0.9-0.32-1.34c-0.16-0.48-0.34-1-0.57-1.52s-0.47-1.08-0.74-1.64l-0.82-1.74c-0.28-0.57-0.47-1.21-0.71-1.83
	c-0.18-0.62-0.32-1.25-0.43-1.88l-0.15-0.93c0.01-0.31-0.01-0.62-0.07-0.92c-0.03-0.58-0.03-1.17,0-1.75
	c-0.01-0.52,0.01-1.05,0.07-1.57c0.07-0.49,0.08-0.93,0.12-1.33s0.08-0.74,0.11-1l0.11-0.88l-0.15,0.88c-0.04,0.34-0.09,0.67-0.16,1
	c-0.05,0.38-0.12,0.82-0.17,1.33s-0.12,1-0.13,1.57c-0.04,0.59-0.04,1.17,0,1.76v0.93l0.11,1c0.09,0.65,0.22,1.3,0.38,1.94
	c0.22,0.62,0.37,1.25,0.65,1.87l0.75,1.77c0.25,0.57,0.47,1.12,0.66,1.64s0.34,1,0.49,1.49c0.11,0.42,0.19,0.84,0.25,1.27
	c0.05,0.33,0.07,0.67,0.07,1V143l-0.33,0.48c-0.44,0.66-0.94,1.3-1.4,1.94l-0.69,0.94c-0.22,0.29-0.49,0.58-0.72,0.86
	c-0.97,1.09-2.04,2.1-3.19,3c-1.11,0.88-2.16,1.64-3.11,2.38l-1.3,1c-0.36,0.29-0.69,0.56-1,0.82c0-1.49,0.04-2.97,0.11-4.45v-1.64
	c0-0.55,0.19-3.28,0.18-3.43c0-0.16-0.02-0.33-0.07-0.48l-0.18-1.13v-9.41c0-1,0.12-2,0.17-3l0.23-3c0.08-1,0.22-2,0.33-2.92
	c0.2-1.7,0.39-3.35,0.64-5l0.45-0.67c0.38-0.56,0.9-1.37,1.64-2.28l0.57-0.69c0.2-0.23,0.43-0.46,0.66-0.7s0.5-0.45,0.76-0.69
	c0.28-0.23,0.57-0.45,0.87-0.65c1.39-0.82,2.72-1.72,4-2.7c0.61-0.51,1.16-1.08,1.64-1.71l0.35-0.46c0.11-0.17,0.2-0.33,0.29-0.48
	c0.2-0.32,0.38-0.65,0.52-1c0.28-0.62,0.51-1.27,0.68-1.93c0.14-0.63,0.27-1.22,0.35-1.78c0.18-1.11,0.31-2,0.43-2.66l0.23-1
	l-0.28,1c-0.15,0.64-0.31,1.56-0.52,2.65c-0.1,0.55-0.25,1.14-0.41,1.75c-0.19,0.65-0.44,1.27-0.73,1.88
	c-0.15,0.33-0.33,0.64-0.54,0.94c-0.1,0.16-0.2,0.33-0.29,0.46l-0.36,0.44c-0.49,0.6-1.04,1.15-1.64,1.64c-1.26,1-2.72,1.74-4,2.57
	c-0.32,0.22-0.64,0.43-0.94,0.66c-0.29,0.22-0.56,0.45-0.82,0.7c-0.25,0.24-0.49,0.48-0.72,0.71l-0.62,0.7
	c-0.5,0.61-0.9,1.15-1.24,1.64l0.63-4.18l0.75-4.8l0.62-4.34c0.21-1.36,0.33-2.64,0.46-3.82l0.35-3.28c0.12-2,0.19-3.51,0.25-4.56
	l0.08-1.64l-0.15,1.64c-0.1,1-0.22,2.59-0.43,4.55l-0.53,3.2c-0.18,1.18-0.34,2.46-0.61,3.81l-0.82,4.32l-0.93,4.79l-0.92,5.21
	c-0.36,1.8-0.65,3.67-1,5.59c-0.14,1-0.33,1.93-0.44,2.93l-0.33,3c-0.1,1-0.25,2-0.29,3.08l-0.12,3.13v1.2l-0.44-0.82
	c-0.29-0.57-0.64-1.14-1-1.74c-0.7-1.18-1.49-2.4-2.31-3.65s-1.64-2.54-2.46-3.86c-0.86-1.3-1.64-2.66-2.33-4.06
	c-0.15-0.34-0.34-0.69-0.46-1l-0.36-1c-0.24-0.68-0.41-1.42-0.62-2.12s-0.33-1.41-0.48-2.11l-0.22-1l-0.17-1
	c-0.11-0.68-0.23-1.35-0.31-2l-0.22-1.93c-0.15-1.25-0.2-2.46-0.29-3.54s-0.08-2.11-0.07-3s0-1.64,0-2.31l0.15-2l-0.27,2
	c-0.07,0.64-0.12,1.42-0.18,2.31s-0.07,1.9-0.11,3s0,2.29,0.07,3.56l0.11,1.94c0.03,0.67,0.1,1.34,0.2,2l0.1,1l0.16,1.06
	c0.12,0.7,0.19,1.43,0.37,2.15c0.06,0.25,0.11,0.48,0.16,0.73c-0.18-0.15-0.38-0.29-0.57-0.48c-1-0.88-2.19-2.13-3.38-3.4
	s-2.37-2.54-3.33-3.46l-0.68-0.62l-0.56-0.45l-0.53-0.37l0.5,0.38l0.52,0.48l0.62,0.64c0.88,1,1.94,2.27,3,3.59s2.15,2.63,3.09,3.59
	c0.22,0.25,0.47,0.45,0.67,0.65c0.2,0.18,0.4,0.34,0.62,0.5l0.34,0.21v0.19l0.34,1.09c0.11,0.37,0.27,0.72,0.41,1.08
	c0.58,1.44,1.24,2.84,2,4.2c0.75,1.36,1.52,2.68,2.27,4s1.45,2.5,2.07,3.67c0.3,0.56,0.58,1.13,0.82,1.71
	c0.2,0.56,0.52,1.09,0.7,1.64c0.21,0.46,0.4,0.94,0.56,1.42c0.15,0.44,0.28,0.89,0.38,1.35c0.08,0.43,0.19,0.82,0.24,1.19l0.1,1
	c-0.02,0.14-0.02,0.29,0,0.43c0.02,0.13,0.02,0.27,0,0.4c0.03,0.33,0.03,0.67,0,1c-0.61-0.59-1.25-1.15-1.92-1.67
	c-1.62-1.02-3.35-1.87-5.15-2.52c-1-0.38-2-0.9-3.06-1.24s-2.2-0.68-3.28-1s-2.23-0.68-3.28-1.06c-1.01-0.36-1.97-0.82-2.88-1.38
	l-0.62-0.43c-0.2-0.15-0.38-0.31-0.56-0.48c-0.33-0.3-0.64-0.64-0.91-1c-0.46-0.71-0.88-1.44-1.26-2.2
	c-0.34-0.65-0.74-1.27-1.2-1.84c-0.39-0.52-0.75-1-1-1.36c-0.11-0.17-0.21-0.35-0.3-0.53c-0.08-0.13-0.14-0.27-0.18-0.41l-0.16-0.34
	l0.1,0.36c0.03,0.15,0.08,0.29,0.15,0.43c0.07,0.19,0.16,0.38,0.26,0.56c0.21,0.41,0.53,0.88,0.89,1.43
	c0.41,0.58,0.77,1.2,1.06,1.85c0.33,0.79,0.7,1.56,1.12,2.31c0.26,0.42,0.56,0.82,0.89,1.19c0.19,0.18,0.33,0.34,0.56,0.53l0.63,0.5
	c0.94,0.66,1.94,1.21,3,1.64c1.06,0.45,2.16,0.82,3.23,1.25s2.17,0.82,3.23,1.23s2.09,0.82,3.06,1.22c1.75,0.7,3.42,1.58,5,2.62
	c0.98,0.59,1.78,1.44,2.29,2.46c0.05,0.13,0.09,0.26,0.12,0.4v0.24c0,0.24-0.1,11.37-0.28,14.28c-0.18,2.25-0.2,4.5-0.26,6.74
	c0,1.09-0.03,2.21-0.08,3.34v3.28c0.07,4.43,0.15,8.78,0.21,13l0.29,12.13l0.07,2.85v17.15c-0.07,2.74-0.13,5.12-0.18,7.09
	c-0.16,6.17-1.07,52.4-1.07,52.4h6.79c0,0-0.19-48.45-0.25-52.38c0-2-0.06-4.35-0.1-7.09v-2.11l-0.11-2.25l-0.29-4.81l-0.26-5.27
	c-0.05-0.91-0.09-1.84-0.14-2.78l-0.18-2.85l-0.77-12.13l-0.7-13l-0.09-1.64v-4.99c0-2.24-0.09-4.48,0-6.72s0.12-4.7,0.16-7
	c0.39-0.4,0.79-0.78,1.22-1.14c0.3-0.26,0.62-0.55,1-0.87l1.25-1c0.91-0.72,1.94-1.54,3-2.46c1.17-0.96,2.24-2.03,3.22-3.19
	c0.24-0.3,0.51-0.61,0.74-0.93l0.66-1c0.43-0.65,0.91-1.29,1.34-2l1.27-2.09c0.44-0.7,0.82-1.43,1.25-2.15
	c0.2-0.36,0.43-0.72,0.62-1.09l0.11-0.22l0,0l0.69-0.31l0.36-0.16l0.42-0.24c0.29-0.18,0.66-0.36,1-0.59c0.35-0.23,0.68-0.47,1-0.73
	l1.08-0.82c0.37-0.29,0.75-0.58,1.15-0.87s0.82-0.56,1.26-0.82l0.7-0.36l0.34-0.16l0.39-0.15l0.39-0.15l0.39-0.12
	c0.26-0.08,0.52-0.15,0.78-0.2c0.52-0.12,1-0.23,1.54-0.32L325,132c0.43-0.1,0.82-0.16,1.16-0.27s0.65-0.16,0.87-0.25l0.73-0.26
	L327,131.47z"/>
<g>
	<path class="st10" d="M83.78,41.89c-0.67,7.92-3.62,13.69-5.77,17.45c-3.62,6.71-10.74,19.06-20.94,34.9v-23.9
		c0,0.13,0.13,0.13,0.13,0.27c7.12-15.04,14.23-30.07,21.35-45.11H64.99V15.17c2.28,0.67,7.79,2.68,12.35,7.79
		c5.5,6.31,6.44,13.29,6.58,15.57l0,0C83.92,39.2,83.92,40.41,83.78,41.89z M35.72,25.38h13.56V14.9h-0.27
		c-2.55,0.94-8.46,3.36-13.02,9.4c-1.48,1.88-5.24,6.98-5.5,14.23c0,0.54,0,1.61,0.13,3.09c0.81,8.19,4.03,14.77,5.24,17.32
		c3.49,6.98,10.61,19.73,21.21,35.31c0-0.13,0.13-0.13,0.13-0.27v-23.9C49.95,55.31,42.84,40.28,35.72,25.38z"/>
	<path class="st11" d="M27.8,39.07c0,0.94,0,1.88-0.13,2.68c0-1.07,0.13-2.28,0.13-3.49C27.8,38.67,27.8,38.93,27.8,39.07z"/>
	<path class="st1" d="M76.8,93.17c0,3.76-8.86,6.85-19.73,6.85c-10.87,0-19.73-3.09-19.73-6.85c0-2.68,4.56-5.1,11.28-6.18
		l2.68,0.67c-7.12,0.67-12.35,2.68-12.35,5.1c0,8.59,35.71,6.85,35.71,0c0-2.28-5.1-4.3-12.08-4.97L64.58,87
		C71.83,87.94,76.8,90.35,76.8,93.17z"/>
</g>
<path class="st12" d="M197.02,134.62c-2.46-5.01-4.73-9.59-6.96-14.18c-6.05-12.48-12.18-24.94-16.72-38.08
	c-1.72-4.99-3.19-10.05-3.48-15.38c-0.6-10.92,6.52-22.09,18.24-26.1c15.67-5.36,32.17,4.09,35.55,20.3
	c1.24,5.97,0.02,11.7-1.65,17.37c-3.52,11.88-8.64,23.12-14.03,34.23C204.47,119.97,200.81,127.07,197.02,134.62z M197.26,122.58
	c2.32-4.75,4.62-9.32,6.8-13.94c5.15-10.87,10.17-21.8,13.36-33.45c1.14-4.17,1.91-8.38,1.07-12.74
	c-2.25-11.64-12.78-19.09-24.84-17.54c-11.24,1.44-19.81,12.35-18.28,23.56c0.48,3.53,1.34,7.07,2.47,10.46
	c4.92,14.75,11.87,28.63,18.69,42.56C196.68,121.82,196.93,122.1,197.26,122.58z M183.45,66.74c-0.32-7.2,5.7-13.46,13.26-13.78
	c7.32-0.31,13.46,5.64,13.83,13.4c0.34,7.18-5.72,13.48-13.27,13.79C189.94,80.45,183.8,74.49,183.45,66.74z M197.08,58.34
	c-4.51-0.03-8.24,3.54-8.28,7.92c-0.05,4.77,3.42,8.44,8.04,8.51c4.56,0.07,8.35-3.55,8.4-8.01
	C205.28,62.1,201.67,58.37,197.08,58.34z"/>
<g>
	<path class="st13" d="M240.45,363.55c-2.82,0.25-4.97,0.6-7.12,0.6c-20.72,0.04-41.44,0.02-63.1,0.02
		c-2.24-15.99-7.6-30.54-22.35-38c-8.12-4.1-17.9-7.21-26.83-6.97c-23.43,0.62-38.45,16.66-43.9,44.99H52.55H27.71V160.72h212.74
		V363.55z"/>
	<path class="st12" d="M387.84,363.64h-25.96c-7.68-29.78-22.69-44.32-45.97-44.94c-23.57-0.64-38.23,12.99-48.13,45.04
		c-1.62,0.14-3.39,0.41-5.17,0.4c-1.78-0.01-3.56-0.3-6.12-0.54V204.44c23.89,0,47.41-0.16,70.92,0.24
		c2.44,0.04,5.56,2.95,7.13,5.34c16.75,25.56,33.29,51.24,49.74,77c1.7,2.66,3.37,5.95,3.41,8.96
		C387.97,318.12,387.84,340.26,387.84,363.64 M272.33,219.42v56.18h86c-12.03-18.52-23.14-35.82-34.55-52.92
		c-1.14-1.71-4.1-3.08-6.23-3.11C302.69,219.29,287.83,219.42,272.33,219.42"/>
	<path class="st14" d="M156.68,363.9c-0.2,18.74-15.74,33.85-34.35,33.38c-18.36-0.46-33.09-15.42-33.13-33.63
		c-0.03-18.77,15.11-33.87,33.92-33.83C141.91,329.85,156.88,345.05,156.68,363.9"/>
	<path class="st15" d="M123.06,379.95c-8.93,0.1-16.34-7.09-16.52-16.03c-0.19-9.23,7.07-16.73,16.27-16.79
		c9.01-0.05,16.31,7,16.55,16C139.6,372.25,132.24,379.85,123.06,379.95"/>
	<path class="st14" d="M349.07,363.9c-0.2,18.74-15.74,33.85-34.34,33.38c-18.36-0.46-33.1-15.42-33.13-33.63
		c-0.03-18.77,15.11-33.87,33.92-33.83C334.29,329.85,349.26,345.05,349.07,363.9"/>
	<path class="st15" d="M315.44,379.95c-8.93,0.1-16.34-7.09-16.52-16.03c-0.2-9.23,7.08-16.73,16.27-16.79c9-0.05,16.31,7,16.55,16
		C331.99,372.25,324.62,379.85,315.44,379.95"/>
	<path class="st13" d="M369.77,352.57c-0.69-1.06-1.38-2.09-2.05-3.13c-1.87-2.9-3.63-5.86-5.26-8.91
		c-1.31-2.47-2.55-4.97-3.42-7.65c-0.48-1.51-0.74-3.05-0.53-4.65c0.34-2.5,1.34-4.68,3.09-6.5c1.27-1.33,2.77-2.28,4.51-2.88
		c0.09-0.03,0.17-0.05,0.29-0.09v4.39h-5.8c3.08,6.42,6.14,12.78,9.2,19.15c0.03,0,0.06,0,0.09,0c3.05-6.36,6.11-12.72,9.2-19.15
		h-5.83v-4.41c0.51,0.21,0.99,0.37,1.44,0.6c3.74,1.91,5.89,4.96,6.41,9.14c0.2,1.63-0.14,3.19-0.67,4.72
		c-1,2.92-2.41,5.66-3.88,8.35c-2.06,3.76-4.34,7.38-6.73,10.93C369.83,352.52,369.81,352.53,369.77,352.57"/>
	<path class="st1" d="M120.09,277.48c0,10.97-8.05,20.52-25.74,20.52c-8.58,0-17.6-2.39-23.61-6.63l5.66-10.97
		c4.69,3.54,11.14,5.57,17.6,5.57c7.16,0,11.59-3.01,11.59-8.05c0-4.86-3.18-8.05-14.42-8.05H75.34l3.19-34.85h37.77v11.5H90.46
		l-0.97,11.76h5.04C112.84,258.29,120.09,266.51,120.09,277.48z M142.64,246.7h-19.81v-11.67h53.95v11.67h-19.81v50.24h-14.33V246.7
		z"/>
</g>
<path class="st4" d="M517.65,276.29c0.78,0.02,1.56,0.05,2.33,0.07c0.65-12.13,1.61-24.25,1.85-36.38
	c0.28-14.2,4.69-21.22,15.47-23.04c13.6-2.3,23.63,2.37,25.84,16.21c2.54,15.89,1.28,32.4,1.57,44.53
	c4.4-8.91,17.85-19.68,11.99-37.94c-1.1-3.42,2.22-8.26,3.49-12.44c1.59-0.38,3.18-0.76,4.76-1.14
	c8.62,15.46,17.24,30.92,27.06,48.51c-0.48-6.62-0.45-10.91-1.15-15.08c-3.57-21.37-6.85-42.81-11.34-63.99
	c-1.11-5.22-5.35-12.22-9.83-13.87c-21.96-8.11-40.28-24.05-61.41-31.68c-27.17-9.81-47.98-25.3-66.29-46.12
	c-3.04-3.45-6.12-6.86-9.41-10.56c-10.94,9.77-20.84,18.61-33.3,29.74c13.04-2.12,22.27-4.22,31.6-4.82
	c3.49-0.22,8.14,2.17,10.67,4.87c15.13,16.1,29.98,32.47,44.43,49.18c2.58,2.99,5.19,9.95,3.71,11.77
	c-7.17,8.83-3.53,16.95-0.98,25.81c2.83,9.84,5.25,19.9,6.54,30.04C516.78,251.98,516.91,264.18,517.65,276.29"/>
<path class="st4" d="M1758.99,262.56c0.85,0.03,1.71,0.05,2.55,0.08c0.71-13.3,1.76-26.58,2.03-39.89
	c0.31-15.57,5.14-23.26,16.96-25.26c14.91-2.52,25.91,2.6,28.33,17.78c2.79,17.42,1.4,35.52,1.72,48.82
	c4.82-9.77,19.57-21.58,13.14-41.6c-1.21-3.75,2.43-9.05,3.83-13.64c1.74-0.42,3.48-0.83,5.22-1.25
	c9.46,16.95,18.91,33.9,29.66,53.18c-0.52-7.26-0.5-11.96-1.26-16.53c-3.91-23.43-7.51-46.93-12.43-70.15
	c-1.21-5.72-5.87-13.4-10.77-15.21c-24.08-8.89-44.16-26.37-67.33-34.73c-29.78-10.76-52.61-27.74-72.68-50.56
	c-3.33-3.78-6.7-7.53-10.31-11.57c-12,10.72-22.84,20.4-36.5,32.6c14.29-2.32,24.41-4.62,34.64-5.28c3.83-0.25,8.93,2.38,11.7,5.34
	c16.58,17.65,32.87,35.6,48.71,53.92c2.83,3.28,5.69,10.91,4.07,12.91c-7.87,9.69-3.87,18.59-1.08,28.3
	c3.1,10.78,5.76,21.82,7.18,32.93C1758.04,235.91,1758.19,249.28,1758.99,262.56"/>
</svg>
